<svg xmlns="http://www.w3.org/2000/svg" viewBox="0 0 200 60">
  <!-- Laravel Logo -->
  <g fill="#FF2D20">
    <!-- L harfi -->
    <path d="M20 10 L20 45 L35 45 L35 40 L25 40 L25 10 Z"/>
    <!-- a harfi -->
    <path d="M40 25 Q40 20, 45 20 Q50 20, 50 25 L50 45 L45 45 L45 42 Q42 45, 40 42 Q38 40, 40 37 Q42 35, 45 37 L45 35 Q45 25, 40 25 Z"/>
    <!-- r harfi -->
    <path d="M55 20 L55 45 L60 45 L60 32 Q62 30, 65 32 L65 27 Q60 25, 55 30 L55 20 Z"/>
    <!-- a harfi -->
    <path d="M70 25 Q70 20, 75 20 Q80 20, 80 25 L80 45 L75 45 L75 42 Q72 45, 70 42 Q68 40, 70 37 Q72 35, 75 37 L75 35 Q75 25, 70 25 Z"/>
    <!-- v harfi -->
    <path d="M85 20 L90 40 L95 20 L100 20 L92 45 L88 45 L80 20 Z"/>
    <!-- e harfi -->
    <path d="M105 25 Q105 20, 110 20 Q115 20, 115 25 Q115 30, 110 30 L110 35 Q112 37, 115 35 L115 40 Q110 45, 105 40 Q105 35, 105 30 Q105 25, 105 25 Z"/>
    <!-- l harfi -->
    <path d="M120 10 L120 45 L125 45 L125 10 Z"/>
  </g>
  <!-- Laravel Icon -->
  <g fill="#FF2D20" transform="translate(140, 15)">
    <path d="M0 0 L15 8 L30 0 L30 15 L15 23 L0 15 Z"/>
    <path d="M5 20 L15 25 L25 20 L25 30 L15 35 L5 30 Z"/>
  </g>
</svg>
